<svg width="350" height="106" viewBox="0 0 350 106" fill="none" xmlns="http://www.w3.org/2000/svg">
<path d="M0 0H350V106H0V0Z" fill="#F5F5F5"/>
<mask id="mask0_14_124" style="mask-type:luminance" maskUnits="userSpaceOnUse" x="43" y="13" width="265" height="80">
<path d="M43 13H307.151V93H43V13Z" fill="white"/>
</mask>
<g mask="url(#mask0_14_124)">
<path d="M67.4878 61.0746L64.9905 38.4073C64.8787 37.3694 64.2451 36.4145 63.276 36.0409C62.3069 35.6672 61.3005 35.9579 60.5923 36.7051L45.8697 52.6055C45.5715 52.9376 45.3106 53.3112 45.1615 53.8094C44.6769 55.3455 45.3851 57.0061 46.7642 57.5043C47.0624 57.6288 47.3233 57.6704 47.6215 57.6704H49.9696L52.4296 57.6288C52.5415 57.6288 52.616 57.6288 52.7278 57.6704C53.1751 57.8364 53.3987 58.3761 53.2496 58.8743L52.4296 61.4482L43.2979 90.2183H45.1615L54.8524 59.5801C54.8524 59.5385 54.8896 59.5385 54.8896 59.497C55.3742 58.0025 54.666 56.3003 53.2869 55.8022C52.9887 55.6776 52.6905 55.6361 52.3924 55.6361L50.0815 55.6776H48.926H47.6215C47.5097 55.6776 47.4351 55.6776 47.3233 55.6361C46.876 55.47 46.6524 54.9303 46.8015 54.4322C46.8388 54.2661 46.9506 54.1416 47.0624 54.017L48.8142 52.1488L59.9214 40.1094L61.8223 38.0336C62.046 37.7845 62.3814 37.7015 62.6796 37.826C62.9778 37.9506 63.2014 38.2412 63.2387 38.6148L63.5741 41.5209L65.4751 58.6667L65.7732 61.3237C65.8105 61.4898 65.7732 61.6558 65.736 61.8219C65.5869 62.3201 65.1023 62.5692 64.6551 62.4031C64.5432 62.3616 64.4687 62.3201 64.3941 62.237L63.3878 61.3237L62.4932 60.5349L60.7042 58.9158C60.4805 58.7082 60.2196 58.5422 59.9214 58.4176C58.5796 57.8779 57.0514 58.6667 56.6042 60.2028C56.6042 60.2443 56.6042 60.2443 56.5669 60.2858L47.0624 90.2599H48.926L57.4242 63.441L58.2442 60.867C58.3933 60.3689 58.8778 60.1198 59.3251 60.2858C59.4369 60.3273 59.5114 60.3688 59.586 60.4519L61.4869 62.1955L63.3132 63.8561C63.5369 64.0637 63.7978 64.2298 64.0587 64.3543C65.4005 64.894 66.9287 64.1052 67.376 62.5692C67.525 62.0295 67.5623 61.5313 67.4878 61.0746Z" fill="#FF671F"/>
</g>
<mask id="mask1_14_124" style="mask-type:luminance" maskUnits="userSpaceOnUse" x="43" y="13" width="265" height="80">
<path d="M43 13H307.151V93H43V13Z" fill="white"/>
</mask>
<g mask="url(#mask1_14_124)">
<path d="M121.645 90.2599H141.623L164.881 17.3175H144.829L121.645 90.2599Z" fill="#FF671F"/>
</g>
<mask id="mask2_14_124" style="mask-type:luminance" maskUnits="userSpaceOnUse" x="43" y="13" width="265" height="80">
<path d="M43 13H307.151V93H43V13Z" fill="white"/>
</mask>
<g mask="url(#mask2_14_124)">
<path d="M201.595 90.2599H221.387L231.711 58.1271C235.849 50.4052 244.123 52.1489 242.595 58.9158L232.68 90.2599H253.367L263.169 59.6216C265.778 51.9413 276.625 51.4431 274.239 60.535L265.033 90.2599H285.011L296.193 55.0134C299.92 43.0155 286.763 26.9906 264.138 44.6346C261.455 36.5806 250.31 31.5158 235.401 43.2646L236.408 38.4903H217.846L201.595 90.2599Z" fill="#FF671F"/>
</g>
<mask id="mask3_14_124" style="mask-type:luminance" maskUnits="userSpaceOnUse" x="43" y="13" width="265" height="80">
<path d="M43 13H307.151V93H43V13Z" fill="white"/>
</mask>
<g mask="url(#mask3_14_124)">
<path d="M296.528 18.2725C297.125 15.9892 299.026 14.2871 301.299 14.2871C304.02 14.2871 306.257 16.778 306.257 19.8086C306.257 22.8807 304.02 25.3301 301.299 25.3301C298.541 25.3301 296.305 22.8807 296.305 19.8086C296.268 19.2689 296.342 18.7707 296.528 18.2725L295.969 17.9819C295.82 18.5631 295.708 19.1859 295.708 19.8086C295.708 23.2544 298.168 26.0359 301.299 26.0359C304.356 26.0359 306.89 23.2544 306.89 19.8086C306.89 16.4043 304.356 13.5813 301.299 13.5813C298.765 13.5813 296.678 15.408 295.969 17.9819L296.528 18.2725Z" fill="#FF671F"/>
</g>
<mask id="mask4_14_124" style="mask-type:luminance" maskUnits="userSpaceOnUse" x="43" y="13" width="264" height="80">
<path d="M43.2981 13.6229H306.853V92.4605H43.2981V13.6229Z" fill="white"/>
</mask>
<g mask="url(#mask4_14_124)">
<path d="M300.293 19.6845H300.107V17.8163H302.418C303.461 18.1484 303.014 19.6845 302.231 19.6845H300.293V20.3487H301.672C303.387 20.5978 302.529 22.383 302.939 22.9227H303.536C303.088 22.2169 303.871 20.8469 302.753 20.2242C304.244 19.4769 303.61 17.152 302.231 17.1935H299.51V22.9227H300.032V20.3902H300.293V19.6845Z" fill="#FF671F"/>
</g>
<mask id="mask5_14_124" style="mask-type:luminance" maskUnits="userSpaceOnUse" x="43" y="13" width="264" height="80">
<path d="M43.2981 13.6229H306.853V92.4605H43.2981V13.6229Z" fill="white"/>
</mask>
<g mask="url(#mask5_14_124)">
<path d="M181.281 38.4076H162.533L151.5 72.8653C145.984 92.336 163.577 98.7708 180.312 85.3199L179.194 90.2602H197.048L213.522 38.4906H194.401L184.636 68.0495C182.362 75.2732 169.652 79.3417 171.59 68.2571L181.281 38.4076Z" fill="#FF671F"/>
</g>
<mask id="mask6_14_124" style="mask-type:luminance" maskUnits="userSpaceOnUse" x="43" y="13" width="264" height="80">
<path d="M43.2981 13.6229H306.853V92.4605H43.2981V13.6229Z" fill="white"/>
</mask>
<g mask="url(#mask6_14_124)">
<path d="M98.387 41.1478L105.842 17.1935H85.7889L62.7544 90.2189H81.5771L83.7389 84.4483C84.8943 93.208 110.836 100.556 124.664 69.4613C135.511 47.043 123.099 24.7908 98.387 41.1478ZM105.208 68.9216C101.481 74.0279 95.517 76.6019 92.0879 74.0695C88.3607 71.2879 88.5843 64.9776 92.3116 58.9994C93.2061 57.5048 94.1752 56.2179 95.2188 55.18C98.7225 51.4851 102.748 50.2812 105.991 52.6476C109.755 55.4291 109.122 63.4831 105.208 68.9216Z" fill="#FF671F"/>
</g>
</svg>
