<svg width="107" height="100" viewBox="0 0 107 100" fill="none" xmlns="http://www.w3.org/2000/svg">
<path d="M27.0001 27.5003C14.1667 41.0003 -3.79992 67.8003 27.0001 67.0003C65.5001 66.0003 96 53 105.5 56.0008" stroke="#333333" stroke-width="2"/>
<path d="M106.707 56.7064C107.098 56.3157 107.097 55.6825 106.707 55.2922L100.34 48.931C99.9493 48.5406 99.3162 48.5409 98.9258 48.9316C98.5355 49.3223 98.5357 49.9554 98.9264 50.3458L104.586 56.0002L98.9314 61.6595C98.541 62.0502 98.5413 62.6834 98.932 63.0737C99.3227 63.4641 99.9558 63.4638 100.346 63.0731L106.707 56.7064ZM105 57L106 56.9996L106 54.9996L105 55L105 57Z" fill="#333333"/>
</svg>
